General:

Title: Patriot Games  
Director: Phillip Noyce
Release Date: 5 June 1992 (USA)
Language: English
Runtime: 117 min   
Genre: Action | Crime | Thriller
Color: Color
IMDb Rating: 6.9/10   27,982 votes    
Link: http://www.imdb.com/title/tt0105112/
Studio: Paramount
Language: English
Subtitles: English, English SDH, French, Spanish
Sample Video: yes

Plot:

His days as an intelligence agent behind him, former CIA analyst Jack Ryan has traveled to London to vacation with his wife and child. Meeting his family outside Buckingham Palace, Ryan is caught in the middle of a terrorist attack on Lord Holmes, a member of the Royal Family. Ryan helps to thwart Holmes' assailants and becomes a local hero. But Ryan's courageous act marks him as a target in the sights of the terrorist whose brother he killed. Now Ryan must return to action for the most vital assignment of his life: to save his family.



Video:


Format: H.264/MPEG-4 AVC
Format/Info: Advanced Video Codec
Format profile: High@L4.0
Format settings, CABAC: Yes
Format settings, ReFrames: 5 frames
Codec ID: avc1
Codec ID/Info: Advanced Video Coding
Duration: 1h 56mn
Bit rate mode: Variable
Bit rate: 2170 Kbps
Maximum bit rate: 17.2 mbps 
Screen Resolution: 1376 x 768
Display aspect ratio: 16:9
Frame rate mode: Constant
Frame rate: 23.976 fps
Resolution: 24 bits
Colorimetry: 4:2:0
Scan type: Progressive
Bits/(Pixel*Frame): 0.086
Stream size: 1.77 GiB (78%)


Audio:


Format: mp4a - MPEG-4 AAC LC
Format/Info: Advanced Audio Codec
Format version: Version 4
Format profile: LC
Format settings, SBR: No
Codec ID: 40
Duration: 1h 56mn
Bit rate mode: Variable
Bit rate: 609 Kbps
Maximum bit rate: 726 Kbps
Channel(s): 6 channels
Channel positions: Front: L C R, Rear: L R, LFE
Sampling rate: 48.0 KHz
Resolution: 16 bits
Stream size: 509 MiB (22%)




Hope you all Enjoy

Please Let me know if this works on a PS3.

Thanks and keep seeding.

IceBane
